<svg width="30" height="30" viewBox="0 0 30 30" fill="none" xmlns="http://www.w3.org/2000/svg">
<circle cx="15" cy="15" r="15" fill="white"/>
<path d="M18.4135 9H12.5865C10.6058 9 9 10.6058 9 12.5865V18.4135C9 20.3942 10.6058 22 12.5865 22H18.4135C20.3942 22 22 20.3942 22 18.4135V12.5865C22 10.6058 20.3942 9 18.4135 9ZM20.8462 18.4135C20.8462 19.7596 19.75 20.8462 18.4135 20.8462H12.5865C11.2404 20.8462 10.1538 19.75 10.1538 18.4135V12.5865C10.1538 11.25 11.25 10.1538 12.5865 10.1538H18.4135C19.7596 10.1538 20.8462 11.25 20.8462 12.5865V18.4135Z" fill="#1C3566"/>
<path d="M15.5 12C13.5745 12 12 13.5667 12 15.495C12 17.4232 13.5645 19 15.5 19C17.4255 19 19 17.4333 19 15.495C19 13.5667 17.4255 12 15.5 12ZM15.5 17.7948C14.2364 17.7948 13.2034 16.7704 13.2034 15.505C13.2135 14.2296 14.2364 13.2052 15.5 13.2052C16.7636 13.2052 17.7966 14.2296 17.7966 15.495C17.7966 16.7604 16.7636 17.7948 15.5 17.7948Z" fill="#1C3566"/>
<path d="M19 11C18.7386 11 18.4773 11.1023 18.2955 11.2955C18.1136 11.4773 18 11.7386 18 12C18 12.2614 18.1023 12.5227 18.2955 12.7045C18.4773 12.8864 18.7386 13 19 13C19.2614 13 19.5227 12.8977 19.7045 12.7045C19.8864 12.5227 20 12.2614 20 12C20 11.7386 19.8977 11.4773 19.7045 11.2955C19.5227 11.1023 19.2727 11 19 11Z" fill="#1C3566"/>
</svg>
