<svg width="30" height="30" viewBox="0 0 30 30" fill="none" xmlns="http://www.w3.org/2000/svg">
<path d="M15.5 1C7.49177 1 1 7.49177 1 15.5C1 23.5082 7.49177 30 15.5 30C23.5082 30 30 23.5082 30 15.5C30 7.49177 23.5082 1 15.5 1ZM21.0765 17.3593C21.0765 17.3593 22.3588 18.6251 22.6745 19.2126C22.6835 19.2247 22.6881 19.2368 22.6911 19.2428C22.8195 19.4588 22.8497 19.6265 22.7863 19.7518C22.6805 19.9603 22.318 20.063 22.1942 20.072H19.9285C19.7715 20.072 19.4422 20.0312 19.0434 19.7564C18.7368 19.5419 18.4347 19.1899 18.1402 18.8471C17.7007 18.3366 17.3201 17.8955 16.9364 17.8955C16.8877 17.8954 16.8392 17.9031 16.7929 17.9182C16.5029 18.0118 16.1314 18.4257 16.1314 19.5283C16.1314 19.8727 15.8595 20.0705 15.6677 20.0705H14.63C14.2766 20.0705 12.4354 19.9467 10.8041 18.2263C8.80734 16.1193 7.00995 11.8931 6.99484 11.8539C6.88156 11.5805 7.11568 11.434 7.37094 11.434H9.65922C9.96432 11.434 10.064 11.6197 10.1335 11.7844C10.2151 11.9762 10.5141 12.739 11.005 13.5969C11.801 14.9955 12.2889 15.5634 12.6801 15.5634C12.7534 15.5626 12.8255 15.5439 12.89 15.5091C13.4005 15.2251 13.3054 13.4051 13.2827 13.0274C13.2827 12.9565 13.2812 12.2133 13.0199 11.8569C12.8326 11.5986 12.5139 11.5004 12.3206 11.4642C12.3988 11.3562 12.5019 11.2686 12.6211 11.2089C12.9716 11.0337 13.6029 11.008 14.2297 11.008H14.5786C15.2583 11.0171 15.4335 11.0609 15.6797 11.1228C16.1782 11.2421 16.1888 11.5639 16.1449 12.6649C16.1314 12.9776 16.1178 13.331 16.1178 13.7479C16.1178 13.8385 16.1132 13.9352 16.1132 14.0379C16.0981 14.5983 16.08 15.2342 16.4757 15.4955C16.5273 15.5278 16.587 15.5451 16.6479 15.5453C16.7854 15.5453 17.1992 15.5453 18.3199 13.6226C18.6656 13.0037 18.9659 12.3606 19.2186 11.6983C19.2413 11.659 19.3078 11.5382 19.3863 11.4914C19.4443 11.4618 19.5085 11.4468 19.5736 11.4476H22.2636C22.5567 11.4476 22.7576 11.4914 22.7953 11.6046C22.8618 11.7844 22.7832 12.3327 21.5553 13.9956L21.007 14.7191C19.8938 16.1782 19.8938 16.2522 21.0765 17.3593Z" fill="white"/>
</svg>
