<svg width="73" height="72" viewBox="0 0 73 72" fill="none" xmlns="http://www.w3.org/2000/svg">
<path d="M36.619 0C16.63 0 0.424988 16.079 0.424988 35.911C0.424988 55.744 16.63 71.823 36.619 71.823C56.608 71.823 72.813 55.744 72.813 35.911C72.813 16.08 56.608 0 36.619 0ZM70.459 35.911C70.459 54.454 55.309 69.487 36.619 69.487C17.929 69.487 2.77899 54.454 2.77899 35.911C2.77899 17.369 17.93 2.335 36.619 2.335C55.308 2.335 70.459 17.369 70.459 35.911Z" fill="white"/>
<path d="M54.161 20.6749C54.652 21.1989 55.361 22.0439 55.759 22.5569L63.088 17.9409C62.722 17.4659 62.138 16.7439 61.703 16.2349L57.061 19.2799L56.744 19.5499L56.98 19.2079L59.03 15.1499L57.58 13.7119L53.488 15.7449L53.144 15.9789L53.418 15.6649L56.488 11.0619C55.948 10.6059 55.429 10.1879 54.768 9.6819L50.115 16.9469C50.705 17.3969 51.482 18.0569 51.977 18.5069L56.357 16.2519L56.637 16.0469L56.431 16.3259L54.161 20.6759V20.6749ZM37.53 11.4669L39.533 7.0169L39.66 6.6219L39.624 7.0329L39.834 12.9809C40.537 13.0469 41.263 13.1439 41.978 13.2619L41.652 4.4529C40.652 4.3429 39.656 4.2649 38.66 4.2229L36.687 9.0809L36.617 9.4419L36.547 9.0819L34.577 4.2229C33.58 4.2649 32.584 4.3429 31.584 4.4529L31.259 13.2629C31.974 13.1429 32.699 13.0489 33.402 12.9809L33.612 7.0329L33.576 6.6219L33.704 7.0159L35.706 11.4669H37.53ZM21.333 18.4879C22.491 17.2779 23.146 15.8799 21.989 14.5459C21.359 13.8219 20.301 13.6629 19.424 14.0199L19.337 14.0539L19.365 13.9779C19.495 13.6339 19.578 12.5359 18.635 11.7779C18.175 11.4079 17.599 11.2709 17.015 11.3299C15.928 11.4399 15.092 12.1769 12.815 14.6959C12.127 15.4559 11.127 16.6559 10.527 17.4319L16.781 23.3189C18.854 21.0429 19.699 20.1959 21.333 18.4879ZM13.173 17.0479C14.431 15.5189 15.77 14.1319 16.377 13.5829C16.569 13.4099 16.777 13.2369 17.03 13.1689C17.441 13.0569 17.865 13.3469 17.96 13.7649C18.056 14.1849 17.79 14.5839 17.494 14.9129C16.828 15.6589 14.385 18.1939 14.385 18.1939L13.172 17.0479H13.173ZM15.622 19.3539C15.622 19.3539 18.001 16.8579 18.778 16.0599C19.086 15.7429 19.284 15.5499 19.497 15.4469C19.771 15.3139 20.071 15.2869 20.34 15.4639C20.603 15.6399 20.725 15.9409 20.659 16.2409C20.58 16.5979 20.286 16.9379 20.044 17.1979L16.89 20.5469L15.622 19.3539Z" fill="white"/>
<path d="M58.083 35.911H36.619V14.615C48.481 14.615 58.083 24.142 58.083 35.911ZM36.619 35.911V57.207C24.757 57.207 15.155 47.68 15.155 35.911H36.619Z" fill="white"/>
<path d="M36.619 14.615V35.911H15.155C15.155 24.142 24.757 14.615 36.619 14.615ZM58.083 35.911C58.083 47.681 48.481 57.207 36.619 57.207V35.911H58.083Z" fill="#0066B1"/>
</svg>
